<svg width="18" height="18" viewBox="0 0 18 18" fill="none" xmlns="http://www.w3.org/2000/svg">
<path d="M4.75006 1C4.75006 0.585786 4.41427 0.25 4.00006 0.25C3.58585 0.25 3.25006 0.585786 3.25006 1V2.81643C1.75699 3.02751 0.577438 4.20845 0.377761 5.71484L0.291209 6.36779C0.276535 6.47849 0.262504 6.58926 0.249115 6.70008C0.213599 6.99405 0.445204 7.25 0.74131 7.25H17.2588C17.5549 7.25 17.7865 6.99405 17.7509 6.70008C17.7376 6.58926 17.7235 6.47849 17.7089 6.36779L17.6223 5.71484C17.4226 4.20847 16.2431 3.02754 14.7501 2.81644V1C14.7501 0.585786 14.4143 0.25 14.0001 0.25C13.5858 0.25 13.2501 0.585786 13.2501 1V2.66763C10.4223 2.4158 7.5778 2.4158 4.75006 2.66763V1Z" fill="#FFCA1F"/>
<path d="M17.9446 9.22555C17.9359 8.95912 17.7157 8.75 17.4491 8.75H0.550927C0.284356 8.75 0.0641901 8.95912 0.0554355 9.22555C-0.0039631 11.0332 0.105839 12.8446 0.384573 14.6359C0.595582 15.9919 1.69724 17.0335 3.06298 17.1681L4.25599 17.2858C7.41103 17.5969 10.589 17.5969 13.7441 17.2858L14.9371 17.1681C16.3028 17.0335 17.4045 15.9919 17.6155 14.6359C17.8942 12.8446 18.004 11.0332 17.9446 9.22555Z" fill="#FFCA1F"/>
</svg>
