<svg width="25" height="50" viewBox="0 0 25 50" fill="none" xmlns="http://www.w3.org/2000/svg">
<path d="M21.34 26.001L10.94 32.0057C10.7958 32.0885 10.6356 32.1393 10.4701 32.1547C10.3046 32.1701 10.1377 32.1497 9.98073 32.095C9.82379 32.0402 9.68045 31.9524 9.56042 31.8374C9.44039 31.7224 9.34649 31.583 9.28508 31.4285C7.65224 27.2984 7.65224 22.7016 9.28508 18.5715C9.34667 18.4172 9.44066 18.2779 9.56071 18.163C9.68077 18.0482 9.82408 17.9604 9.98096 17.9057C10.1378 17.851 10.3046 17.8306 10.4701 17.8458C10.6355 17.8611 10.7958 17.9118 10.94 17.9943L21.34 23.999C21.5157 24.1004 21.6617 24.2463 21.7632 24.422C21.8646 24.5977 21.9181 24.7971 21.9181 25C21.9181 25.2029 21.8646 25.4022 21.7632 25.578C21.6617 25.7537 21.5157 25.8996 21.34 26.001ZM22.9195 0.0399944C10.2341 1.28539 0.322876 11.9857 0.322876 25C0.322876 38.0143 10.2341 48.7146 22.9195 49.96C23.0796 49.975 23.2411 49.9564 23.3936 49.9053C23.5462 49.8543 23.6863 49.7718 23.805 49.6633C23.9238 49.5549 24.0186 49.4228 24.0832 49.2755C24.1479 49.1282 24.181 48.969 24.1805 48.8082V45.709C24.1799 45.4247 24.0746 45.1506 23.8847 44.939C23.6947 44.7275 23.4335 44.5934 23.1509 44.5624C18.3467 44.0132 13.9124 41.7157 10.6932 38.1075C7.47399 34.4994 5.69486 29.8329 5.69486 24.9974C5.69486 20.1619 7.47399 15.4954 10.6932 11.8873C13.9124 8.27911 18.3467 5.98154 23.1509 5.43239C23.4335 5.40137 23.6947 5.26728 23.8847 5.05575C24.0746 4.84421 24.1799 4.57009 24.1805 4.28579V1.18789C24.1801 1.0275 24.1463 0.868949 24.0812 0.722328C24.0162 0.575708 23.9214 0.444229 23.8028 0.336257C23.6841 0.228284 23.5444 0.146184 23.3923 0.0951784C23.2402 0.044173 23.0792 0.0253797 22.9195 0.0399944ZM22.8415 7.83999C19.1639 8.38131 15.7603 10.0984 13.1396 12.7345C12.6599 13.213 12.208 13.7187 11.7863 14.249C11.6827 14.3792 11.6084 14.5302 11.5683 14.6917C11.5282 14.8531 11.5234 15.0214 11.5541 15.1849C11.5848 15.3484 11.6503 15.5034 11.7463 15.6394C11.8422 15.7753 11.9662 15.889 12.11 15.9728L22.4424 21.9385C22.6181 22.0401 22.8175 22.0936 23.0204 22.0937C23.2234 22.0938 23.4228 22.0404 23.5986 21.9389C23.7744 21.8375 23.9204 21.6915 24.0218 21.5157C24.1233 21.3399 24.1767 21.1405 24.1766 20.9375V8.97749C24.1751 8.81118 24.1379 8.64713 24.0675 8.49644C23.9971 8.34575 23.8952 8.21194 23.7686 8.10408C23.642 7.99622 23.4937 7.91682 23.3337 7.87125C23.1738 7.82569 23.0059 7.81503 22.8415 7.83999ZM22.4515 28.0654L12.11 34.0272C11.9659 34.1106 11.8415 34.2241 11.7452 34.3599C11.6489 34.4957 11.583 34.6506 11.5519 34.8142C11.5208 34.9777 11.5253 35.146 11.5651 35.3077C11.6049 35.4693 11.679 35.6205 11.7824 35.751C12.204 36.2826 12.6559 36.7896 13.1357 37.2694C15.758 39.9048 19.163 41.6206 22.8415 42.16C23.0066 42.1856 23.1754 42.1753 23.3362 42.1297C23.497 42.0841 23.646 42.0044 23.7732 41.8959C23.9003 41.7874 24.0025 41.6527 24.0728 41.5011C24.1431 41.3495 24.1798 41.1844 24.1805 41.0173V29.0573C24.1793 28.8549 24.125 28.6564 24.0231 28.4815C23.9211 28.3067 23.7751 28.1616 23.5996 28.0609C23.4241 27.9601 23.2253 27.9071 23.0229 27.9072C22.8205 27.9073 22.6217 27.9605 22.4463 28.0615L22.4515 28.0654Z" fill="#FFCA1F"/>
</svg>
