<svg width="88" height="32" viewBox="0 0 88 32" fill="none" xmlns="http://www.w3.org/2000/svg">
<path d="M0.619995 30.7329V26.5053L17.104 6.2253H0.749995V0.840698H25.1757V5.0683L8.693 25.3483H25.3473V30.729L0.619995 30.7329ZM38.3824 31.1593C36.162 31.1593 34.1479 30.6471 32.34 29.6227C30.5745 28.6377 29.0959 27.2098 28.05 25.4796C26.9961 23.7463 26.4692 21.7963 26.4692 19.6296C26.4692 17.4629 26.9749 15.5129 27.9863 13.7796C28.9754 12.0638 30.3955 10.636 32.106 9.6378C33.8393 8.61166 35.7755 8.09903 37.9144 8.0999C40.0533 8.10076 41.9466 8.62727 43.5941 9.6794C45.2478 10.7366 46.5952 12.2091 47.5019 13.9499C48.4552 15.7439 48.9319 17.7806 48.9319 20.0599V21.59H32.4479C32.6998 22.4651 33.1285 23.2792 33.7076 23.982C34.2962 24.6972 35.0418 25.267 35.8864 25.6473C36.7637 26.0484 37.7181 26.2525 38.6827 26.2453C39.6224 26.2573 40.5566 26.0992 41.44 25.7786C42.2412 25.4875 42.9744 25.0354 43.5941 24.45L47.4369 27.96C46.1839 29.0048 44.7616 29.8278 43.2314 30.3936C41.7936 30.9041 40.1777 31.1593 38.3837 31.1593H38.3824ZM32.3634 17.4092H43.1664C42.9834 16.5615 42.6115 15.7661 42.0783 15.0822C41.57 14.4288 40.9294 13.8901 40.1985 13.5014C39.4541 13.1131 38.6252 12.9153 37.7857 12.9255C36.9345 12.9118 36.0925 13.1021 35.33 13.4806C34.6009 13.8537 33.9658 14.387 33.4723 15.0406C32.943 15.745 32.5654 16.5515 32.3634 17.4092ZM60.2822 31.1593C58.3604 31.1776 56.4465 30.9117 54.6025 30.3702C52.9659 29.8958 51.4312 29.1227 50.0759 28.09L52.9801 24.2043C54.1295 24.9909 55.3695 25.636 56.6734 26.1257C57.8013 26.5435 58.9936 26.7604 60.1964 26.7666C61.5059 26.7666 62.5524 26.546 63.3359 26.1049C64.1194 25.6638 64.5094 25.087 64.5059 24.3746C64.5135 24.1105 64.4573 23.8484 64.3421 23.6105C64.227 23.3727 64.0562 23.1661 63.8442 23.0083C63.4022 22.6668 62.6976 22.425 61.7304 22.2829L57.4599 21.642C55.2395 21.2997 53.5599 20.5808 52.4211 19.4853C51.2823 18.3898 50.7129 16.9451 50.7129 15.1511C50.7129 13.6986 51.0903 12.4532 51.8452 11.4149C52.6001 10.3766 53.6687 9.565 55.051 8.98C56.4316 8.3976 58.0757 8.10597 59.9832 8.1051C61.595 8.10402 63.1987 8.3343 64.7451 8.7889C66.3063 9.24839 67.784 9.95453 69.1222 10.8806L66.3038 14.6818C65.2146 13.9736 64.0372 13.4115 62.8016 13.01C61.7071 12.6699 60.5677 12.4968 59.4216 12.4965C58.3686 12.4965 57.5219 12.6958 56.8814 13.0945C56.2409 13.4932 55.9207 14.0201 55.9207 14.6753C55.9102 14.9481 55.967 15.2194 56.086 15.4651C56.205 15.7109 56.3826 15.9236 56.6032 16.0845C57.0582 16.426 57.8412 16.6678 58.9523 16.8099L63.2228 17.4508C65.4146 17.7645 67.0942 18.4691 68.2616 19.5646C69.429 20.6601 70.0127 22.0762 70.0127 23.813C70.0336 25.1817 69.5844 26.5161 68.74 27.5934C67.8855 28.6906 66.7328 29.5573 65.282 30.1934C63.8312 30.8295 62.1646 31.1515 60.2822 31.1593ZM82.9789 31.08C80.5028 31.08 78.6313 30.5167 77.3642 29.39C76.0971 28.2633 75.4636 26.6167 75.4636 24.45V13.3519H70.8941V8.4847H75.4636V2.805L81.3136 1.4803V8.4847H87.6771V13.3519H81.3136V23.2592C81.3136 24.2853 81.5415 25.0185 81.9974 25.4588C82.4533 25.8991 83.2502 26.1196 84.3881 26.1205C84.91 26.1242 85.4315 26.0885 85.9481 26.0139C86.4796 25.9275 87.0018 25.7917 87.5081 25.6083V30.43C86.7845 30.6565 86.041 30.8136 85.2877 30.8993C84.5227 31.0083 83.7515 31.0687 82.9789 31.08Z" fill="white"/>
</svg>
